# xmcd
#
# Track frame offsets:
#	150
#	14567
#	30270
#	46127
#	63937
#	86074
#	100588
#	115284
#	130977
#	147090
#	167632
#	183824
#	202681
#	220111
#	235524
#	256321
#	273347
#	288694
#
# Disc length: 4062 seconds
#
# Revision: 7
# Processed by: cddbd v1.5.2PL0 Copyright (c) Steve Scherf et al.
# Submitted via: EasyCDDAExtractor 15.3.0.1
#
DISCID=ef0fdc12
DTITLE=P!nk - Greatest Hits... So Far!!!
DYEAR=2010
DGENRE=Pop/Rock
TTITLE0=Get The Party Started
TTITLE1=There You Go
TTITLE2=Don't Let Me Get Me
TTITLE3=Just Like A Pill
TTITLE4=Family Portrait
TTITLE5=Trouble
TTITLE6=Stupid Girls
TTITLE7=Who Knew
TTITLE8=U and Ur Hand
TTITLE9=Dear Mr. President (Featuring Indigo Girls)
TTITLE10=So What
TTITLE11=Sober
TTITLE12=Please Don't Leave Me
TTITLE13=Funhouse
TTITLE14=I Don't Believe You
TTITLE15=Glitter In The Air
TTITLE16=Raise Your Glass
TTITLE17=Fuckin' Perfect
EXTD=
EXTT0=
EXTT1=
EXTT2=
EXTT3=
EXTT4=
EXTT5=
EXTT6=
EXTT7=
EXTT8=
EXTT9=
EXTT10=
EXTT11=
EXTT12=
EXTT13=
EXTT14=
EXTT15=
EXTT16=
EXTT17=
PLAYORDER=
